HIERARCHY
ROOT hip
{
  OFFSET 0 0 0
  CHANNELS 6 Xposition Yposition Zposition Zrotation Yrotation Xrotation
  JOINT abdomen
  {
    OFFSET 0 20.6881 -0.73152
    CHANNELS 3 Zrotation Xrotation Yrotation
    JOINT chest
    {
      OFFSET 0 11.7043 -0.48768
      CHANNELS 3 Zrotation Xrotation Yrotation
      JOINT neck
      {
        OFFSET 0 22.1894 -2.19456
        CHANNELS 3 Zrotation Xrotation Yrotation
        JOINT head
        {
          OFFSET -0.24384 7.07133 1.2192
          CHANNELS 3 Zrotation Xrotation Yrotation
          JOINT leftEye
          {
            OFFSET 4.14528 8.04674 8.04672
            CHANNELS 3 Zrotation Xrotation Yrotation
            End Site
            {
              OFFSET 1 0 0
            }
          }
          JOINT rightEye
          {
            OFFSET -3.6576 8.04674 8.04672
            CHANNELS 3 Zrotation Xrotation Yrotation
            End Site
            {
              OFFSET 1 0 0
            }
          }
        }
      }
      JOINT rCollar
      {
        OFFSET -2.68224 19.2634 -4.8768
        CHANNELS 3 Zrotation Xrotation Yrotation
        JOINT rShldr
        {
          OFFSET -8.77824 -1.95073 1.46304
          CHANNELS 3 Zrotation Xrotation Yrotation
          JOINT rForeArm
          {
            OFFSET -28.1742 -1.7115 0.48768
            CHANNELS 3 Zrotation Xrotation Yrotation
            JOINT rHand
            {
              OFFSET -22.5879 0.773209 7.07136
              CHANNELS 3 Zrotation Xrotation Yrotation
              JOINT rThumb1
              {
                OFFSET -1.2192 -0.487915 3.41376
                CHANNELS 3 Zrotation Xrotation Yrotation
                JOINT rThumb2
                {
                  OFFSET -3.37035 -0.52449 3.41376
                  CHANNELS 3 Zrotation Xrotation Yrotation
                  End Site
                  {
                    OFFSET -1.78271 -1.18214 1.43049
                  }
                }
              }
              JOINT rIndex1
              {
                OFFSET -7.75947 0.938293 5.60832
                CHANNELS 3 Zrotation Xrotation Yrotation
                JOINT rIndex2
                {
                  OFFSET -2.54057 -0.884171 1.56538
                  CHANNELS 3 Zrotation Xrotation Yrotation
                  End Site
                  {
                    OFFSET -1.62519 -0.234802 1.16502
                  }
                }
              }
              JOINT rMid1
              {
                OFFSET -8.24714 1.18213 3.41376
                CHANNELS 3 Zrotation Xrotation Yrotation
                JOINT rMid2
                {
                  OFFSET -3.10165 -0.590103 1.0647
                  CHANNELS 3 Zrotation Xrotation Yrotation
                  End Site
                  {
                    OFFSET -2.48547 -0.328903 0.83742
                  }
                }
              }
              JOINT rRing1
              {
                OFFSET -8.82822 0.546677 1.51678
                CHANNELS 3 Zrotation Xrotation Yrotation
                JOINT rRing2
                {
                  OFFSET -2.60934 -0.819778 -0.0198488
                  CHANNELS 3 Zrotation Xrotation Yrotation
                  End Site
                  {
                    OFFSET -2.33842 -0.294052 0.168128
                  }
                }
              }
              JOINT rPinky1
              {
                OFFSET -8.27202 -0.0477905 -0.4584
                CHANNELS 3 Zrotation Xrotation Yrotation
                JOINT rPinky2
                {
                  OFFSET -1.82734 -0.647385 -0.700984
                  CHANNELS 3 Zrotation Xrotation Yrotation
                  End Site
                  {
                    OFFSET -1.69225 -0.51767 -0.607171
                  }
                }
              }
            }
          }
        }
      }
      JOINT lCollar
      {
        OFFSET 2.68224 19.2634 -4.8768
        CHANNELS 3 Zrotation Xrotation Yrotation
        JOINT lShldr
        {
          OFFSET 8.77824 -1.95073 1.46304
          CHANNELS 3 Zrotation Xrotation Yrotation
          JOINT lForeArm
          {
            OFFSET 28.1742 -1.7115 0.48768
            CHANNELS 3 Zrotation Xrotation Yrotation
            JOINT lHand
            {
              OFFSET 22.5879 0.773209 7.07136
              CHANNELS 3 Zrotation Xrotation Yrotation
              JOINT lThumb1
              {
                OFFSET 1.2192 -0.487915 3.41376
                CHANNELS 3 Zrotation Xrotation Yrotation
                JOINT lThumb2
                {
                  OFFSET 3.37035 -0.52449 3.41376
                  CHANNELS 3 Zrotation Xrotation Yrotation
                  End Site
                  {
                    OFFSET 1.78271 -1.18214 1.43049
                  }
                }
              }
              JOINT lIndex1
              {
                OFFSET 7.75947 0.938293 5.60832
                CHANNELS 3 Zrotation Xrotation Yrotation
                JOINT lIndex2
                {
                  OFFSET 2.54057 -0.884171 1.56538
                  CHANNELS 3 Zrotation Xrotation Yrotation
                  End Site
                  {
                    OFFSET 1.62519 -0.234802 1.16502
                  }
                }
              }
              JOINT lMid1
              {
                OFFSET 8.24714 1.18213 3.41376
                CHANNELS 3 Zrotation Xrotation Yrotation
                JOINT lMid2
                {
                  OFFSET 3.10165 -0.590103 1.0647
                  CHANNELS 3 Zrotation Xrotation Yrotation
                  End Site
                  {
                    OFFSET 2.48547 -0.328903 0.83742
                  }
                }
              }
              JOINT lRing1
              {
                OFFSET 8.82822 0.546677 1.51678
                CHANNELS 3 Zrotation Xrotation Yrotation
                JOINT lRing2
                {
                  OFFSET 2.60934 -0.819778 -0.0198488
                  CHANNELS 3 Zrotation Xrotation Yrotation
                  End Site
                  {
                    OFFSET 2.33842 -0.294052 0.168128
                  }
                }
              }
              JOINT lPinky1
              {
                OFFSET 8.27202 -0.0477905 -0.4584
                CHANNELS 3 Zrotation Xrotation Yrotation
                JOINT lPinky2
                {
                  OFFSET 1.82734 -0.647385 -0.700984
                  CHANNELS 3 Zrotation Xrotation Yrotation
                  End Site
                  {
                    OFFSET 1.69225 -0.51767 -0.607171
                  }
                }
              }
            }
          }
        }
      }
    }
  }
  JOINT rButtock
  {
    OFFSET -8.77824 4.35084 1.2192
    CHANNELS 3 Zrotation Xrotation Yrotation
    JOINT rThigh
    {
      OFFSET 0 -1.70687 -2.19456
      CHANNELS 3 Zrotation Xrotation Yrotation
      JOINT rShin
      {
        OFFSET 0 -36.8199 0.73152
        CHANNELS 3 Zrotation Xrotation Yrotation
        JOINT rFoot
        {
          OFFSET 0.73152 -45.1104 -5.12064
          CHANNELS 3 Zrotation Xrotation Yrotation
          End Site
          {
            OFFSET -1.1221 -3.69964 12.103
          }
        }
      }
    }
  }
  JOINT lButtock
  {
    OFFSET 8.77824 4.35084 1.2192
    CHANNELS 3 Zrotation Xrotation Yrotation
    JOINT lThigh
    {
      OFFSET 0 -1.70687 -2.19456
      CHANNELS 3 Zrotation Xrotation Yrotation
      JOINT lShin
      {
        OFFSET 0 -36.8199 0.73152
        CHANNELS 3 Zrotation Xrotation Yrotation
        JOINT lFoot
        {
          OFFSET -0.73152 -45.1104 -5.12064
          CHANNELS 3 Zrotation Xrotation Yrotation
          End Site
          {
            OFFSET 1.1221 -3.69964 12.103
          }
        }
      }
    }
  }
}
MOTION
Frames:	6
Frame Time:	0.00833333
-2.49647 84.4292 -4.78668 0.0 0.0 0.0 -0.937489 -0.0046789 -0.026074 -0.258761 -0.00545777 -0.0448323 -1.51967e-14 -7.95139e-16 4.96961e-17 -4.58074e-14 3.18055e-15 1.5996e-16 -0.0 0.0 0.0 -0.0 0.0 0.0 -7.70459e-15 -1.90243e-17 1.49089e-16 -1.59492e-13 -5.46658e-16 7.95139e-16 -2.77046e-12 8.10843e-13 5.725e-14 -3.16879e-11 -9.22883e-13 1.59028e-14 -7.47558e-11 -2.43697e-13 1.74931e-13 -1.29105e-10 -4.23014e-13 2.93406e-13 -7.47514e-11 -2.4212e-13 1.55847e-13 7.73091 5.47488 0.417314 -7.47541e-11 -2.43412e-13 1.7175e-13 2.90554 0.965183 0.102902 -7.47493e-11 -2.43511e-13 1.66979e-13 10.2786 0.731801 0.0259123 -7.47633e-11 -2.42517e-13 1.74931e-13 2.22167 -0.733487 -0.20892 -7.80111e-15 -2.13538e-17 -9.93923e-17 -1.63027e-13 -2.48481e-16 -9.93923e-16 -2.76917e-12 -8.44636e-13 1.27222e-14 -3.17008e-11 7.40423e-13 6.67917e-14 -7.47699e-11 -2.28692e-13 1.65389e-13 -1.29118e-10 -3.97569e-13 2.8784e-13 -7.47733e-11 -2.2741e-13 1.7175e-13 -7.73091 5.47488 -0.417314 -7.47698e-11 -2.28901e-13 1.62208e-13 -2.90554 0.965183 -0.102902 -7.47805e-11 -2.28503e-13 1.64594e-13 -10.2786 0.731801 -0.0259123 -7.47689e-11 -2.26217e-13 1.65389e-13 -2.22167 -0.733487 0.20892 -2.03217e-16 0.0 -3.88251e-19 -0.229529 -1.95205 -0.0134866 -0.0090959 -2.0182 -0.0753261 -0.480678 3.9695 0.135095 2.03217e-16 0.0 3.88251e-19 -1.19869 -5.36326 0.104974 4.5112e-05 4.1607 -0.0211763 0.495648 1.20193 -0.0808629
-3.82264 83.0542 -13.077 179.444 -3.0546 178.937 0.281538 7.67582 -0.779821 1.59707 -2.58594 -0.274467 -1.62275 1.71601 -1.2437 -2.55698 1.83151 -0.797522 -0.0 0.0 0.0 -0.0 0.0 0.0 -7.70412e-15 -2.18035e-14 2.65253e-15 12.7455 -13.3353 1.21913 -14.87 -12.0844 14.5245 0.155933 -8.88966 -1.19774 -5.28879e-12 -4.39109e-11 -3.40955e-11 -8.78647e-12 -7.5737e-11 -5.74559e-11 -5.28283e-12 -4.391e-11 -3.41158e-11 7.73091 5.47488 0.417314 -5.28746e-12 -4.39103e-11 -3.40967e-11 2.90554 0.965183 0.102902 -5.28401e-12 -4.39102e-11 -3.40998e-11 10.2786 0.731801 0.0259123 -5.29432e-12 -4.39088e-11 -3.40919e-11 2.22167 -0.733487 -0.20892 -7.84814e-15 -2.181e-14 2.39046e-15 -22.6693 6.32303 3.28531 10.3674 -7.23336 -12.538 -0.0227094 -3.34468 0.467183 -2.03734e-10 -1.82212e-10 1.08627e-10 -3.53459e-10 -3.16844e-10 1.86385e-10 -2.03737e-10 -1.82212e-10 1.08639e-10 -7.73091 5.47488 -0.417314 -2.03735e-10 -1.82213e-10 1.08629e-10 -2.90554 0.965183 -0.102902 -2.03744e-10 -1.82213e-10 1.08629e-10 -10.2786 0.731801 -0.0259123 -2.03732e-10 -1.8221e-10 1.0863e-10 -2.22167 -0.733487 0.20892 -2.03217e-16 0.0 -3.88251e-19 -0.718558 -6.60064 0.182504 0.00631754 7.67425 0.0734221 -0.697856 1.03769 -3.47428 2.03217e-16 0.0 3.88251e-19 -0.59245 -8.48061 -0.846808 -0.0101228 13.0513 -0.170666 0.471494 -2.53908 -0.13955
-3.91002 83.1641 -12.8534 179.368 -2.408 178.818 1.79973 15.765 -1.61306 3.53842 -5.30902 -0.537367 -3.2681 3.52566 -2.57199 -5.17953 3.76619 -1.66398 -0.0 0.0 0.0 -0.0 0.0 0.0 -8.61083e-15 -4.59231e-14 5.76476e-15 26.8747 -27.5277 2.69881 -23.7002 -22.0716 31.7518 -0.107335 -18.4362 -2.58765 6.70292e-11 -8.71332e-11 -7.14595e-11 1.16508e-10 -1.50308e-10 -1.20471e-10 6.70368e-11 -8.71331e-11 -7.14814e-11 7.73091 5.47488 0.417314 6.70301e-11 -8.71323e-11 -7.14585e-11 2.90554 0.965183 0.102902 6.7032e-11 -8.71319e-11 -7.146e-11 10.2786 0.731801 0.0259123 6.70258e-11 -8.713e-11 -7.14521e-11 2.22167 -0.733487 -0.20892 -8.80818e-15 -4.59346e-14 5.48832e-15 -47.4416 12.9235 6.89126 17.9131 -13.7094 -26.3876 0.012947 -6.86101 0.963762 -3.4437e-10 -3.83445e-10 2.24525e-10 -5.9809e-10 -6.66736e-10 3.85255e-10 -3.44373e-10 -3.83446e-10 2.24543e-10 -7.73091 5.47488 -0.417314 -3.44371e-10 -3.83446e-10 2.24534e-10 -2.90554 0.965183 -0.102902 -3.44378e-10 -3.83446e-10 2.2453e-10 -10.2786 0.731801 -0.0259123 -3.44367e-10 -3.83444e-10 2.24532e-10 -2.22167 -0.733487 0.20892 -2.03217e-16 0.0 -3.88251e-19 -1.19185 -11.4924 0.388437 -0.0341158 17.9128 0.240945 -1.3324 -2.04582 -7.32261 2.03217e-16 0.0 3.88251e-19 -0.0689741 -11.7814 -1.87628 0.0335918 22.4229 -0.345126 0.429534 -6.52009 -0.247828
-4.14464 83.1697 -12.6103 178.924 -1.8783 178.818 3.37058 23.0199 -2.46255 5.24617 -7.74636 -0.739647 -4.64416 5.13831 -3.7445 -7.51742 5.49026 -2.40237 -0.0 0.0 0.0 -0.0 0.0 0.0 -7.70318e-15 -6.53726e-14 7.65942e-15 40.3759 -39.9219 4.64241 -26.5561 -26.5713 49.1682 -0.758667 -26.6195 -3.9716 1.33645e-10 -1.31245e-10 -1.02636e-10 2.31851e-10 -2.26365e-10 -1.72955e-10 1.33654e-10 -1.31246e-10 -1.02659e-10 7.73091 5.47488 0.417314 1.33646e-10 -1.31244e-10 -1.02634e-10 2.90554 0.965183 0.102902 1.33647e-10 -1.31244e-10 -1.02633e-10 10.2786 0.731801 0.0259123 1.33644e-10 -1.31241e-10 -1.02626e-10 2.22167 -0.733487 -0.20892 -7.94222e-15 -6.53874e-14 7.37017e-15 -70.2739 18.7127 10.3485 22.0043 -17.5079 -39.462 0.0976493 -10.0314 1.42089 -4.61663e-10 -5.46179e-10 3.2555e-10 -8.02141e-10 -9.49736e-10 5.5858e-10 -4.61666e-10 -5.46181e-10 3.25573e-10 -7.73091 5.47488 -0.417314 -4.61665e-10 -5.4618e-10 3.25564e-10 -2.90554 0.965183 -0.102902 -4.6167e-10 -5.46181e-10 3.25558e-10 -10.2786 0.731801 -0.0259123 -4.6166e-10 -5.46179e-10 3.25559e-10 -2.22167 -0.733487 0.20892 -2.03217e-16 0.0 -3.88251e-19 -1.59789 -15.8971 0.593541 -0.127164 27.0586 0.414189 -2.23613 -4.73636 -10.7277 2.03217e-16 0.0 3.88251e-19 0.299696 -14.7011 -2.81386 0.129487 30.8315 -0.53167 0.39979 -10.021 -0.260523
-4.39514 83.1788 -12.3704 178.437 -1.3699 178.802 4.61897 28.2035 -3.19629 6.42224 -9.47005 -0.783819 -5.50781 6.26802 -4.51464 -9.2585 6.69234 -2.81069 -0.0 0.0 0.0 -0.0 0.0 0.0 -2.25966e-15 -7.31469e-14 6.5102e-15 50.7982 -47.8817 6.90012 -27.0647 -26.555 61.7655 -1.38937 -31.4481 -4.93069 1.86007e-10 -1.77582e-10 -1.18345e-10 3.22317e-10 -3.06135e-10 -1.9911e-10 1.86016e-10 -1.77583e-10 -1.18368e-10 7.73091 5.47488 0.417314 1.86007e-10 -1.77581e-10 -1.18342e-10 2.90554 0.965183 0.102902 1.86007e-10 -1.7758e-10 -1.1834e-10 10.2786 0.731801 0.0259123 1.86006e-10 -1.77578e-10 -1.18333e-10 2.22167 -0.733487 -0.20892 -2.51125e-15 -7.31609e-14 6.21202e-15 -86.6357 22.7153 12.9711 23.7504 -18.6387 -48.8298 0.190304 -12.3392 1.76174 -5.20601e-10 -6.12665e-10 3.89392e-10 -9.04745e-10 -1.0655e-09 6.68041e-10 -5.20604e-10 -6.12668e-10 3.89418e-10 -7.73091 5.47488 -0.417314 -5.20602e-10 -6.12666e-10 3.89408e-10 -2.90554 0.965183 -0.102902 -5.20607e-10 -6.12667e-10 3.89401e-10 -10.2786 0.731801 -0.0259123 -5.20597e-10 -6.12665e-10 3.89402e-10 -2.22167 -0.733487 0.20892 -2.03217e-16 0.0 -3.88251e-19 -1.90009 -19.0846 0.781055 -0.232239 33.4731 0.558843 -3.01857 -6.54629 -12.9709 2.03217e-16 0.0 3.88251e-19 0.513746 -16.6811 -3.467 0.23948 36.8331 -0.694477 0.445593 -12.3219 -0.0262547
-4.57937 83.1755 -12.0684 178.194 -0.8641 178.849 5.18979 30.5164 -3.67048 6.8794 -10.2003 -0.573528 -5.73459 6.72371 -4.71285 -10.1993 7.17966 -2.74757 -0.0 0.0 0.0 -0.0 0.0 0.0 1.30623e-14 -6.5173e-14 -2.17693e-15 55.6268 -49.7932 8.58507 -27.3526 -26.2004 67.3223 -1.47562 -31.5901 -4.98178 2.33483e-10 -2.69861e-10 -1.16298e-10 4.0381e-10 -4.64795e-10 -1.94854e-10 2.33492e-10 -2.69862e-10 -1.16317e-10 7.73091 5.47488 0.417314 2.33484e-10 -2.69861e-10 -1.16296e-10 2.90554 0.965183 0.102902 2.33485e-10 -2.69861e-10 -1.16294e-10 10.2786 0.731801 0.0259123 2.33482e-10 -2.69859e-10 -1.16285e-10 2.22167 -0.733487 -0.20892 1.28458e-14 -6.51791e-14 -2.48442e-15 -93.1523 24.3831 14.1028 24.2855 -18.7157 -52.5391 0.242768 -13.4835 1.93338 -5.25079e-10 -5.49757e-10 4.54751e-10 -9.13011e-10 -9.57046e-10 7.80244e-10 -5.2508e-10 -5.49758e-10 4.54774e-10 -7.73091 5.47488 -0.417314 -5.25079e-10 -5.49756e-10 4.54765e-10 -2.90554 0.965183 -0.102902 -5.25083e-10 -5.49757e-10 4.54758e-10 -10.2786 0.731801 -0.0259123 -5.25074e-10 -5.49756e-10 4.54757e-10 -2.22167 -0.733487 0.20892 -2.03217e-16 0.0 -3.88251e-19 -2.06954 -20.5522 0.938563 -0.285564 36.0621 0.623931 -3.2885 -7.21672 -13.545 2.03217e-16 0.0 3.88251e-19 0.635424 -17.3454 -3.68796 0.300268 39.4647 -0.779684 0.626346 -12.9375 0.622254
